HIERARCHY
ROOT root
{
	OFFSET 0.000000 0.000000 0.000000
	CHANNELS 6 Xposition Yposition Zposition Zrotation Yrotation Xrotation
	JOINT lhip
	{
		OFFSET 0.058581 -0.082280 -0.017664
		CHANNELS 3 Zrotation Yrotation Xrotation
		JOINT lknee
		{
			OFFSET 0.043451 -0.386469 0.008037
			CHANNELS 3 Zrotation Yrotation Xrotation
			JOINT lankle
			{
				OFFSET -0.014790 -0.426874 -0.037428
				CHANNELS 3 Zrotation Yrotation Xrotation
				JOINT ltoe
				{
					OFFSET 0.041054 -0.060286 0.122042
					CHANNELS 3 Zrotation Yrotation Xrotation
					End Site
					{
						OFFSET 0.000000 0.000000 0.000000
					}
				}
			}
		}
	}
	JOINT rhip
	{
		OFFSET -0.060310 -0.090513 -0.013543
		CHANNELS 3 Zrotation Yrotation Xrotation
		JOINT rknee
		{
			OFFSET -0.043257 -0.383688 -0.004843
			CHANNELS 3 Zrotation Yrotation Xrotation
			JOINT rankle
			{
				OFFSET 0.019056 -0.420046 -0.034562
				CHANNELS 3 Zrotation Yrotation Xrotation
				JOINT rtoe
				{
					OFFSET -0.034840 -0.062106 0.130323
					CHANNELS 3 Zrotation Yrotation Xrotation
					End Site
					{
						OFFSET 0.000000 0.000000 0.000000
					}
				}
			}
		}
	}
	JOINT lowerback
	{
		OFFSET 0.004439 0.124404 -0.038385
		CHANNELS 3 Zrotation Yrotation Xrotation
		JOINT upperback
		{
			OFFSET 0.004488 0.137956 0.026820
			CHANNELS 3 Zrotation Yrotation Xrotation
			JOINT chest
			{
				OFFSET -0.002265 0.056032 0.002855
				CHANNELS 3 Zrotation Yrotation Xrotation
				JOINT lowerneck
				{
					OFFSET -0.013390 0.211636 -0.033468
					CHANNELS 3 Zrotation Yrotation Xrotation
					JOINT upperneck
					{
						OFFSET 0.010113 0.088937 0.050410
						CHANNELS 3 Zrotation Yrotation Xrotation
						End Site
						{
							OFFSET 0.000000 0.000000 0.000000
						}
					}
				}
				JOINT lclavicle
				{
					OFFSET 0.071702 0.114000 -0.018898
					CHANNELS 3 Zrotation Yrotation Xrotation
					JOINT lshoulder
					{
						OFFSET 0.122921 0.045205 -0.019046
						CHANNELS 3 Zrotation Yrotation Xrotation
						JOINT lelbow
						{
							OFFSET 0.255332 -0.015649 -0.022946
							CHANNELS 3 Zrotation Yrotation Xrotation
							JOINT lwrist
							{
								OFFSET 0.265709 0.012698 -0.007375
								CHANNELS 3 Zrotation Yrotation Xrotation
								End Site
								{
									OFFSET 0.000000 0.000000 0.000000
								}
							}
						}
					}
				}
				JOINT rclavicle
				{
					OFFSET -0.082954 0.112472 -0.023707
					CHANNELS 3 Zrotation Yrotation Xrotation
					JOINT rshoulder
					{
						OFFSET -0.113228 0.046853 -0.008472
						CHANNELS 3 Zrotation Yrotation Xrotation
						JOINT relbow
						{
							OFFSET -0.260127 -0.014369 -0.031269
							CHANNELS 3 Zrotation Yrotation Xrotation
							JOINT rwrist
							{
								OFFSET -0.269108 0.006794 -0.006027
								CHANNELS 3 Zrotation Yrotation Xrotation
								End Site
								{
									OFFSET 0.000000 0.000000 0.000000
								}
							}
						}
					}
				}
			}
		}
	}
}
MOTION
Frames: 16
Frame Time: 0.033333
1.366977 0.683527 0.982148 -92.470529 -1.487375 84.972005 2.648415 -3.275545 -21.638223 -3.479932 -3.382523 4.392461 1.676087 4.183523 -7.578142 0.000000 -0.000000 0.000000 1.282748 -2.637540 13.578288 -0.945408 13.255000 16.066229 0.018293 -0.083256 -15.486705 0.000000 -0.000000 0.000000 -0.801156 7.763302 13.369417 0.261995 -0.571179 1.042641 -2.047605 0.933648 2.861738 0.913843 -13.949636 -4.542077 -4.457135 -23.679420 8.551341 -30.519116 6.202987 -1.610133 -53.180830 -2.988617 10.113147 7.006051 -26.988592 6.481138 -3.893031 -2.196253 -5.686871 28.941045 5.528754 -1.757436 47.870622 11.993543 11.976367 -13.032975 27.517801 -10.700950 4.632574 4.662390 -6.871026 
1.339229 0.680154 0.977135 -92.590646 -1.678602 85.615794 2.977656 -4.694675 -23.726848 -4.606879 -3.273820 10.110301 1.943653 4.741636 -8.076810 0.000000 -0.000000 0.000000 0.953525 -2.172429 13.534784 -0.323764 14.570284 18.674152 0.918414 -0.983624 -15.026554 0.000000 -0.000000 0.000000 -1.027575 8.540636 13.554698 0.007955 -0.215012 1.067553 -2.446744 0.936648 3.094632 1.585417 -14.237402 -5.465069 -4.731910 -23.984590 8.861507 -31.178433 6.287997 -2.157100 -52.433669 -2.450278 9.692146 7.418589 -24.038561 5.242171 -3.943477 -1.766981 -5.490946 29.236529 5.673721 -2.211393 47.367590 13.310585 11.963431 -14.264119 28.015797 -12.678739 4.221928 4.442029 -7.221825 
1.307020 0.675529 0.974859 -92.424809 -1.956443 86.136196 2.173667 -5.085032 -24.483238 -5.410670 -4.146681 14.080111 1.875449 3.587498 -6.579428 0.000000 -0.000000 0.000000 0.574286 -1.848202 14.017896 -0.284970 14.628004 20.500403 1.563753 -0.419097 -13.729865 0.000000 -0.000000 0.000000 -1.578377 9.053726 13.613012 -0.215676 0.117682 1.071934 -2.701328 1.428580 2.897033 1.981054 -15.065670 -5.796181 -4.447156 -24.530071 8.513790 -31.427513 6.514322 -2.578954 -51.930736 -1.741832 9.298573 7.564244 -21.119572 4.837913 -3.984479 -1.067013 -4.789277 29.626708 5.288974 -2.501626 47.219090 13.406790 11.571296 -15.307074 28.570420 -14.131911 4.083147 4.481262 -7.714248 
1.263640 0.668457 0.977065 -90.592157 -2.649156 86.853553 0.552125 -6.164943 -25.000510 -6.047595 -5.139453 16.454476 1.933611 2.973136 -3.795002 0.000000 -0.000000 0.000000 0.378076 -2.069870 12.855450 -0.172644 13.883128 25.531426 3.475259 -0.482865 -8.686300 0.000000 -0.000000 0.000000 -2.715057 9.318732 13.498400 -0.307818 -0.080208 1.101899 -2.944680 1.428844 2.888111 2.365012 -16.367186 -5.844667 -3.588031 -25.132952 8.031295 -31.568577 6.741512 -2.678704 -51.392640 -1.428241 8.948882 7.941331 -18.164190 3.499740 -4.622852 -0.630995 -4.435489 29.923739 4.778124 -2.804486 48.064440 13.045692 11.701101 -16.862927 28.495430 -16.288274 4.033377 4.618623 -8.385992 
1.234513 0.663614 0.980117 -89.346258 -3.021255 86.965121 -0.343035 -6.751242 -24.507291 -6.568597 -4.864106 18.644731 2.534901 2.879326 -2.664456 0.000000 -0.000000 0.000000 0.226511 -2.343779 11.735713 0.207889 13.146359 29.566197 4.738820 0.032225 -2.341218 0.000000 -0.000000 0.000000 -3.302754 9.187183 13.449369 -0.347898 -0.068699 0.850977 -3.070605 1.282130 2.642404 2.194834 -17.869780 -5.329946 -3.112194 -25.004010 7.524751 -31.335362 7.049766 -2.098590 -51.318531 -1.000337 8.595796 8.250503 -16.980558 3.103753 -5.267930 -0.691740 -4.545754 29.778475 4.274164 -2.498848 49.177630 12.407338 11.953834 -17.395864 28.052156 -16.877018 4.228795 4.635604 -8.846727 
1.194672 0.656516 0.983864 -87.641113 -3.222985 86.541921 -1.253353 -7.372236 -22.627511 -7.015321 -4.558102 19.847993 4.131568 2.873879 -2.448538 0.000000 -0.000000 0.000000 0.013879 -2.095955 9.598974 1.417856 10.402246 36.134772 5.602931 0.016019 7.988105 0.000000 -0.000000 0.000000 -3.733429 8.717980 13.470086 -0.256998 0.229317 1.005557 -3.046201 1.068002 2.681083 1.686325 -19.490213 -4.031554 -2.149917 -24.499502 6.854714 -31.030645 7.242670 -1.325002 -51.374533 -0.510404 8.314445 8.454617 -16.633856 2.920505 -6.558254 -0.663935 -4.877439 29.486934 3.242005 -2.631550 50.333997 11.076874 12.215610 -17.383630 28.366627 -16.568015 4.930215 4.564214 -8.878439 
1.154992 0.649562 0.985450 -85.703239 -3.446969 85.516676 -2.310147 -7.785424 -20.709272 -8.750311 -5.708912 22.637074 6.809399 2.825003 -2.829708 0.000000 -0.000000 0.000000 -0.668530 -2.300022 6.616563 2.251331 6.938404 44.004517 7.106573 -1.299566 18.867721 0.000000 -0.000000 0.000000 -4.197613 7.741747 14.062888 -0.048615 0.222353 0.634158 -2.954962 0.622104 2.796303 1.118527 -20.683752 -3.254372 -2.014724 -23.547839 6.547287 -30.327500 7.981551 -0.222071 -51.768046 -0.241821 8.028428 8.311836 -17.285649 3.943165 -7.993132 -0.814192 -5.918387 29.365068 2.635560 -2.348437 51.145746 10.282713 12.857367 -16.808720 28.074349 -15.607061 5.875113 4.372359 -8.659454 
1.116360 0.643021 0.984263 -83.904496 -3.443502 84.252425 -3.518446 -7.568485 -18.763856 -9.707784 -6.045451 26.091240 9.146846 3.276183 -6.070307 0.000000 -0.000000 0.000000 -1.617030 -3.219370 3.539387 1.996364 3.980368 51.113146 8.491972 -4.034115 28.782013 0.000000 -0.000000 0.000000 -4.178969 6.698535 14.921075 0.140162 0.203843 0.510195 -2.856584 0.239243 3.124860 0.851112 -21.592769 -3.549806 -1.845025 -22.637898 6.489039 -30.151057 8.175578 0.475835 -51.702519 -0.263625 7.625204 7.740727 -18.239127 4.901537 -9.061870 -1.209345 -6.198198 29.791505 2.053425 -2.536015 51.148772 9.261919 13.331739 -16.169110 28.397345 -15.097854 6.933330 3.997534 -7.956737 
1.080329 0.636832 0.982019 -82.792078 -3.262570 82.974745 -4.929783 -7.512945 -16.458418 -9.883732 -7.315378 29.225623 10.923242 4.615366 -9.286673 0.000000 -0.000000 0.000000 -2.556665 -3.650806 -0.286432 0.394457 1.065377 58.199232 7.709468 -8.635234 32.303380 0.000000 -0.000000 0.000000 -3.898317 5.592738 15.954161 0.340099 0.517353 0.077603 -2.748791 -0.263661 3.836918 0.999271 -22.277254 -4.396512 -2.505606 -22.339967 7.152704 -30.574165 8.127498 0.523307 -51.415895 -0.752534 7.545209 7.264366 -18.697808 5.822841 -9.402118 -1.551153 -5.866609 30.479222 1.869367 -2.768929 50.923138 8.261904 14.172539 -15.725651 27.997525 -14.786263 6.751260 4.424454 -6.514339 
1.038114 0.631688 0.981261 -82.884537 -2.780836 81.654550 -5.630726 -6.723461 -13.042397 -10.441035 -9.157693 31.726939 12.318521 6.574305 -12.481039 0.000000 -0.000000 0.000000 -2.966908 -3.445693 -5.852360 0.008262 -0.503310 65.563391 3.105578 -9.995504 22.997829 0.000000 -0.000000 0.000000 -3.553488 4.758291 16.209679 0.801717 1.165100 0.341207 -2.689905 -0.694431 4.745505 1.721443 -21.047041 -4.983145 -3.143217 -22.386158 7.292553 -30.973618 7.832923 -0.046089 -51.171948 -1.906889 7.530229 6.885385 -19.510996 6.881834 -9.306141 -0.746800 -6.089637 31.480470 2.024259 -2.813709 50.981003 7.454449 14.052445 -15.191655 26.607234 -14.269674 7.246939 3.451319 -6.811719 
1.005296 0.629076 0.984338 -83.663179 -2.605784 80.775041 -5.912869 -5.046312 -9.380374 -10.330321 -10.474748 30.972632 12.400544 7.711682 -14.374181 0.000000 -0.000000 0.000000 -3.166079 -2.668726 -10.046960 0.387553 -0.761611 67.870351 3.208880 -9.361496 14.078445 0.000000 -0.000000 0.000000 -3.480062 3.936180 16.714561 0.964157 1.738746 0.254667 -2.663642 -0.594461 5.111254 2.415152 -19.887300 -5.174159 -3.884659 -23.426451 7.881230 -31.247782 7.634814 -1.058701 -51.230080 -3.088490 7.619749 7.068724 -19.253923 6.247686 -8.421309 -0.245685 -5.205826 32.573686 1.940579 -3.266881 51.402612 6.850562 13.648406 -14.740788 24.744753 -14.868012 7.076652 2.839696 -6.280569 
0.974091 0.626669 0.989392 -83.927737 -2.109405 80.274602 -5.845351 -3.689492 -5.642923 -9.821313 -12.240760 29.181371 12.101879 8.590614 -15.501171 0.000000 -0.000000 0.000000 -3.215845 -2.087012 -13.904423 1.128986 -1.422718 66.641022 3.201283 -8.810518 6.938480 0.000000 -0.000000 0.000000 -2.895028 2.827169 16.731063 1.119340 1.740761 0.404740 -2.771985 -0.836434 5.128971 2.249583 -18.698200 -4.664304 -4.174643 -24.215254 8.682903 -30.957174 7.089150 -1.089367 -51.871643 -4.261074 7.750164 7.628618 -19.472928 4.866329 -7.823522 -0.036870 -5.510702 33.199915 2.158309 -3.058470 52.084294 6.271629 13.509325 -14.602497 23.421588 -14.240399 7.682260 1.150628 -5.569442 
0.943594 0.624180 0.995762 -84.123321 -1.498159 79.825644 -5.510259 -2.246893 -1.558712 -8.914205 -14.122128 26.312121 11.483211 8.878823 -15.607840 0.000000 -0.000000 0.000000 -3.363710 -1.481258 -16.770886 0.590113 -2.819722 62.046463 3.407978 -8.855407 1.982264 0.000000 -0.000000 0.000000 -2.125434 1.217951 17.224527 1.104045 1.729255 0.082423 -2.659553 -1.206439 4.911534 2.263331 -17.627035 -4.610119 -4.321254 -23.759199 8.685674 -30.635273 6.658704 -0.968462 -52.496960 -5.524166 7.776179 7.893629 -19.832656 3.836864 -7.154240 -0.074864 -5.897353 33.156686 2.180715 -2.814253 53.072096 5.788666 13.265328 -13.695022 21.703813 -13.674741 7.777783 1.119550 -5.468612 
0.914867 0.622582 1.002158 -84.222388 -0.870477 79.582880 -4.873594 -1.036770 2.330848 -7.944475 -15.670005 22.990351 10.320528 9.243696 -16.064867 0.000000 -0.000000 0.000000 -3.620028 -0.914974 -18.576765 -0.554706 -4.808380 54.392223 4.322772 -9.051472 -1.081430 0.000000 -0.000000 0.000000 -1.416370 -0.144476 17.850917 1.080987 1.442798 -0.489238 -2.267441 -1.702858 4.657727 2.147505 -16.651679 -4.579575 -4.354078 -23.379836 8.970867 -30.088674 6.032024 -0.665875 -53.034459 -6.761002 7.947804 7.975927 -20.897346 2.773657 -6.701425 -0.722617 -5.946694 32.980902 2.065331 -2.766615 53.666437 4.947275 13.233910 -12.359724 20.255634 -12.858178 8.056440 1.505554 -5.282472 
0.887731 0.621709 1.005689 -84.584108 -0.500002 79.922956 -4.296481 -0.311790 5.280424 -7.174449 -16.406193 20.125057 9.590030 9.073105 -15.965583 0.000000 -0.000000 0.000000 -3.763923 -0.326345 -20.344989 -0.924874 -5.788948 45.004633 4.830889 -9.490683 -0.221713 0.000000 -0.000000 0.000000 -1.159799 -1.109255 17.617159 1.316740 1.080617 -0.188668 -1.689714 -2.183028 4.395056 1.913548 -15.792926 -4.925362 -3.960815 -22.700499 8.810919 -29.417467 5.176904 -0.409241 -53.313941 -8.013829 8.575179 7.831041 -22.689259 2.968452 -6.252064 -1.422242 -5.865582 33.017753 1.919972 -2.527861 53.651792 4.397388 13.698883 -11.752070 20.116824 -11.528875 8.381337 1.347902 -4.274429 
0.862043 0.621137 1.006557 -85.096986 -0.466342 80.810310 -3.953228 0.094046 7.019460 -6.634006 -16.399012 18.022622 9.415963 8.718050 -16.249890 0.000000 -0.000000 0.000000 -3.682570 -0.264516 -21.846888 -1.147356 -4.929384 33.471828 6.259709 -8.555008 6.459754 0.000000 -0.000000 0.000000 -1.124605 -1.607499 17.379013 1.536992 0.507335 -0.714208 -1.120344 -2.730449 3.822236 1.599883 -16.444531 -5.415829 -3.457562 -22.400421 8.763925 -28.604810 4.799496 0.311338 -53.237542 -9.526549 9.089547 7.468610 -24.678167 3.588160 -6.071215 -2.286314 -5.481762 32.662597 1.424762 -2.104693 53.992475 3.968676 14.287016 -11.069274 19.593862 -10.302286 8.472956 1.435971 -3.694686 
